<mxfile host="app.diagrams.net" agent="Mozilla/5.0 (Windows NT 10.0; Win64; x64; rv:135.0) Gecko/20100101 Firefox/135.0" version="26.0.16">
  <diagram name="Page-1" id="jyKlAJJ9NLUasiOqqjGp">
    <mxGraphModel dx="819" dy="469" grid="1" gridSize="10" guides="1" tooltips="1" connect="1" arrows="1" fold="1" page="0" pageScale="1" pageWidth="850" pageHeight="1100" math="0" shadow="0">
      <root>
        <mxCell id="0" />
        <mxCell id="1" parent="0" />
        <mxCell id="ibCAYDNQj_hkH_2NKTYt-11" value="f : Fungorium" style="shape=umlLifeline;perimeter=lifelinePerimeter;whiteSpace=wrap;html=1;container=1;dropTarget=0;collapsible=0;recursiveResize=0;outlineConnect=0;portConstraint=eastwest;newEdgeStyle={&quot;curved&quot;:0,&quot;rounded&quot;:0};" parent="1" vertex="1">
          <mxGeometry x="80" y="160" width="100" height="240" as="geometry" />
        </mxCell>
        <mxCell id="ibCAYDNQj_hkH_2NKTYt-12" value="" style="html=1;points=[[0,0,0,0,5],[0,1,0,0,-5],[1,0,0,0,5],[1,1,0,0,-5]];perimeter=orthogonalPerimeter;outlineConnect=0;targetShapes=umlLifeline;portConstraint=eastwest;newEdgeStyle={&quot;curved&quot;:0,&quot;rounded&quot;:0};" parent="ibCAYDNQj_hkH_2NKTYt-11" vertex="1">
          <mxGeometry x="45" y="70" width="10" height="150" as="geometry" />
        </mxCell>
        <mxCell id="ibCAYDNQj_hkH_2NKTYt-14" value="t : Tekton" style="shape=umlLifeline;perimeter=lifelinePerimeter;whiteSpace=wrap;html=1;container=1;dropTarget=0;collapsible=0;recursiveResize=0;outlineConnect=0;portConstraint=eastwest;newEdgeStyle={&quot;curved&quot;:0,&quot;rounded&quot;:0};" parent="1" vertex="1">
          <mxGeometry x="200" y="160" width="100" height="240" as="geometry" />
        </mxCell>
        <mxCell id="-NK9o3lA4V6ig4OqipYy-1" value="" style="html=1;points=[[0,0,0,0,5],[0,1,0,0,-5],[1,0,0,0,5],[1,1,0,0,-5]];perimeter=orthogonalPerimeter;outlineConnect=0;targetShapes=umlLifeline;portConstraint=eastwest;newEdgeStyle={&quot;curved&quot;:0,&quot;rounded&quot;:0};" vertex="1" parent="ibCAYDNQj_hkH_2NKTYt-14">
          <mxGeometry x="45" y="80" width="10" height="100" as="geometry" />
        </mxCell>
        <mxCell id="1TU57Vx-UNmc1sneNFIU-1" value="opt" style="shape=umlFrame;whiteSpace=wrap;html=1;pointerEvents=0;" parent="1" vertex="1">
          <mxGeometry x="40" y="260" width="420" height="100" as="geometry" />
        </mxCell>
        <mxCell id="1TU57Vx-UNmc1sneNFIU-3" value="[Tud szakadni]" style="text;html=1;align=center;verticalAlign=middle;resizable=0;points=[];autosize=1;strokeColor=none;fillColor=none;" parent="1" vertex="1">
          <mxGeometry x="32" y="300" width="100" height="30" as="geometry" />
        </mxCell>
        <mxCell id="1TU57Vx-UNmc1sneNFIU-8" value="ut : Tekton" style="shape=umlLifeline;perimeter=lifelinePerimeter;whiteSpace=wrap;html=1;container=1;dropTarget=0;collapsible=0;recursiveResize=0;outlineConnect=0;portConstraint=eastwest;newEdgeStyle={&quot;curved&quot;:0,&quot;rounded&quot;:0};" parent="1" vertex="1">
          <mxGeometry x="340" y="280" width="100" height="120" as="geometry" />
        </mxCell>
        <mxCell id="1TU57Vx-UNmc1sneNFIU-9" value="&amp;lt;&amp;lt;create&amp;gt;&amp;gt;" style="html=1;verticalAlign=bottom;endArrow=block;curved=0;rounded=0;dashed=1;dashPattern=8 8;" parent="1" edge="1">
          <mxGeometry width="80" relative="1" as="geometry">
            <mxPoint x="255" y="290" as="sourcePoint" />
            <mxPoint x="339" y="290" as="targetPoint" />
          </mxGeometry>
        </mxCell>
        <mxCell id="-NK9o3lA4V6ig4OqipYy-2" value="Szakad()" style="html=1;verticalAlign=bottom;endArrow=block;curved=0;rounded=0;entryX=0;entryY=0;entryDx=0;entryDy=5;" edge="1" target="-NK9o3lA4V6ig4OqipYy-1" parent="1" source="ibCAYDNQj_hkH_2NKTYt-12">
          <mxGeometry relative="1" as="geometry">
            <mxPoint x="175" y="245" as="sourcePoint" />
          </mxGeometry>
        </mxCell>
        <mxCell id="-NK9o3lA4V6ig4OqipYy-9" value="AddTekton(ut)" style="html=1;verticalAlign=bottom;endArrow=block;curved=0;rounded=0;exitX=0;exitY=1;exitDx=0;exitDy=-5;exitPerimeter=0;" edge="1" parent="1" source="-NK9o3lA4V6ig4OqipYy-1" target="ibCAYDNQj_hkH_2NKTYt-12">
          <mxGeometry width="80" relative="1" as="geometry">
            <mxPoint x="230" y="330" as="sourcePoint" />
            <mxPoint x="370" y="350" as="targetPoint" />
          </mxGeometry>
        </mxCell>
      </root>
    </mxGraphModel>
  </diagram>
</mxfile>
